<?xml version="1.0" standalone="no"?>
<!DOCTYPE svg PUBLIC "-//W3C//DTD SVG 20010904//EN"
 "http://www.w3.org/TR/2001/REC-SVG-20010904/DTD/svg10.dtd">
<svg version="1.0" xmlns="http://www.w3.org/2000/svg"
 width="400.000000pt" height="400.000000pt" viewBox="0 0 400.000000 400.000000"
 preserveAspectRatio="xMidYMid meet">
<metadata>
Created by potrace 1.11, written by Peter Selinger 2001-2013
</metadata>
<g transform="translate(0.000000,400.000000) scale(0.100000,-0.100000)"
fill="#000000" stroke="none">
<path d="M0 3825 l0 -176 281 2 c220 1 283 5 294 15 29 30 32 247 5 307 l-13
27 -284 0 -283 0 0 -175z"/>
<path d="M686 3963 c-8 -49 -8 -187 0 -236 4 -24 15 -42 28 -50 14 -8 99 -12
261 -13 132 -1 248 -3 257 -4 26 -2 12 -23 -40 -61 l-47 -35 -405 1 c-223 0
-480 5 -572 9 l-168 9 0 -197 0 -198 81 7 c44 4 238 8 430 9 l350 2 -6 -26
c-3 -14 -14 -36 -24 -50 -17 -23 -33 -30 -103 -45 l-28 -5 0 -124 c0 -93 -5
-138 -19 -182 -10 -33 -22 -74 -25 -91 -4 -18 -11 -35 -15 -37 -4 -3 -145 -6
-314 -7 -244 -1 -309 -4 -318 -15 -16 -19 -8 -319 8 -335 16 -16 260 -21 528
-11 233 9 256 5 275 -54 11 -33 10 -39 -5 -50 -10 -7 -23 -15 -29 -17 -13 -4
-15 -301 -3 -314 9 -8 166 -22 179 -16 4 2 -8 36 -26 76 -57 125 -69 172 -61
235 l7 56 19 -25 c10 -13 19 -32 19 -42 0 -10 7 -20 15 -23 8 -4 13 -9 10 -14
-6 -10 45 -65 68 -73 10 -4 26 -26 37 -49 22 -51 30 -154 11 -150 -8 2 -10 -4
-7 -16 6 -16 2 -19 -18 -15 -14 3 -31 11 -37 19 -12 15 -39 19 -39 6 0 -5 11
-15 25 -22 14 -7 25 -21 25 -30 0 -9 5 -21 11 -27 8 -8 7 -13 -3 -19 -7 -5
-233 -11 -503 -14 l-490 -5 1 -153 c1 -112 5 -157 15 -169 12 -14 34 -15 204
-8 104 5 233 10 285 10 200 3 616 7 627 6 17 -2 54 -58 58 -86 1 -13 -2 -22
-6 -19 -5 3 -9 -2 -9 -10 0 -14 -23 -16 -169 -16 -296 0 -297 -1 -295 -166 1
-118 7 -149 31 -159 10 -4 130 -8 266 -10 202 -1 252 1 263 12 11 11 13 38 9
124 l-6 110 25 -18 c14 -10 26 -24 26 -30 0 -7 9 -13 20 -13 11 0 20 -5 20
-10 0 -6 3 -9 8 -8 15 5 61 -39 67 -65 4 -15 11 -24 16 -21 5 3 4 -7 -1 -21
-5 -14 -7 -24 -2 -21 4 2 12 -7 19 -20 8 -18 8 -24 0 -24 -7 -1 2 -7 18 -15
17 -7 23 -14 15 -14 -9 -1 -11 -4 -5 -9 6 -4 16 -17 23 -30 11 -19 10 -23 -4
-29 -11 -4 -22 1 -30 12 -11 15 -14 16 -14 4 0 -19 53 -46 58 -30 7 22 22 10
22 -16 0 -16 4 -23 8 -18 4 6 15 11 25 11 12 1 15 -2 9 -10 -15 -17 0 -41 28
-44 37 -3 50 -10 50 -24 0 -9 -3 -8 -10 2 -9 13 -10 13 -10 0 0 -8 18 -23 40
-32 30 -12 40 -22 40 -39 0 -12 3 -19 7 -16 3 4 13 1 21 -6 11 -8 14 -8 9 0
-10 16 4 22 28 12 l20 -8 -20 -1 c-12 -2 -5 -5 15 -10 19 -4 44 -11 54 -15 13
-6 17 -5 13 2 -5 7 0 9 14 6 16 -4 17 -8 7 -14 -9 -6 -4 -9 15 -9 16 0 43 -11
62 -25 30 -23 34 -24 48 -10 10 9 18 11 22 5 3 -5 1 -10 -4 -10 -6 0 -11 -4
-11 -10 0 -5 9 -10 19 -10 11 0 22 -6 24 -12 3 -8 6 -6 6 4 1 14 6 16 25 8 13
-5 27 -6 31 -2 4 4 2 -3 -4 -15 -9 -18 -9 -22 2 -17 11 4 13 -1 9 -21 -4 -22
-9 -26 -28 -22 -30 5 -32 -9 -2 -17 18 -4 20 -8 10 -18 -6 -6 -12 -21 -12 -33
0 -12 -5 -26 -12 -33 -21 -21 19 -52 69 -52 39 0 43 -2 43 -25 0 -16 6 -25 16
-25 11 0 14 -6 9 -20 -5 -15 -2 -20 10 -20 12 0 15 5 11 16 -4 11 1 18 14 21
11 3 18 9 15 13 -2 4 16 26 40 49 28 27 45 37 45 28 0 -10 11 -17 28 -19 25
-3 27 -6 30 -59 1 -44 -2 -61 -18 -79 -11 -12 -17 -27 -13 -33 5 -8 8 -7 11 1
2 7 8 12 14 12 5 0 0 -13 -11 -29 -16 -22 -18 -31 -9 -35 7 -3 2 -3 -12 0 -14
4 -22 3 -17 -2 4 -4 -16 -23 -45 -41 l-53 -33 848 0 847 0 0 438 0 437 -64 -1
c-130 -4 -140 -20 -134 -216 3 -87 9 -143 16 -150 7 -7 12 -16 12 -20 0 -11
-45 -10 -72 3 -23 10 -23 13 -20 115 5 117 -3 204 -21 228 -11 15 -45 15 -372
7 l-360 -9 -48 27 c-26 14 -58 32 -70 38 -12 7 -31 13 -42 13 -11 0 -27 5 -35
10 -16 10 6 12 222 11 163 0 157 -7 160 189 l3 155 -155 5 -155 5 -3 27 c-2
16 4 34 16 46 10 10 22 26 25 36 7 17 21 17 215 9 245 -10 559 -5 585 9 10 5
27 24 37 41 17 27 20 51 20 162 0 102 -3 135 -16 153 l-15 22 -330 -6 -329 -6
0 25 c0 26 28 57 52 57 23 0 36 21 50 79 7 32 24 67 46 92 36 42 44 43 49 5 2
-13 11 -47 21 -77 30 -86 31 -86 400 -92 l312 -5 0 188 0 189 -282 -4 c-156
-3 -307 -7 -337 -9 l-53 -5 5 41 c3 22 11 46 17 52 8 8 9 6 4 -7 -7 -18 -5
-18 32 1 31 16 62 20 152 21 115 2 128 4 172 24 44 21 49 36 50 140 0 103 -10
136 -50 170 -39 33 -73 39 -213 38 l-138 0 -10 26 c-5 15 -6 30 -1 35 10 10
457 12 473 2 6 -3 49 -3 95 1 l84 7 0 209 0 209 -30 0 c-17 0 -97 -7 -178 -16
-81 -9 -232 -17 -335 -17 -185 -2 -189 -2 -208 -26 -11 -14 -19 -39 -19 -62 0
-36 -2 -39 -19 -30 -10 6 -33 33 -51 60 -17 28 -49 63 -70 79 -33 24 -36 30
-25 45 11 15 41 18 266 22 325 7 350 9 380 41 22 24 24 34 23 132 0 109 -13
172 -43 206 -15 18 -31 18 -371 11 -400 -9 -439 -8 -457 7 -9 7 -13 7 -13 -1
0 -15 -55 -3 -105 23 l-40 20 45 7 c25 3 53 3 62 -2 10 -6 19 -5 23 1 4 6 59
10 133 10 158 0 167 6 176 99 3 35 3 94 0 132 l-7 69 -588 0 c-595 0 -595 0
-590 -32 0 -5 -22 -9 -49 -9 -28 -1 -56 -2 -62 -3 -7 -1 -14 9 -16 22 l-3 22
-568 0 -568 0 -7 -37z m1234 -32 c-28 -16 -60 -22 -60 -12 0 10 22 18 55 20
16 0 17 -1 5 -8z m517 -788 c44 -21 98 -72 98 -93 0 -8 6 -14 13 -12 6 1 13
-4 14 -10 0 -7 2 -24 4 -38 6 -56 17 -110 23 -110 3 0 17 -3 31 -5 22 -5 22
-4 5 4 l-20 10 20 0 c46 1 62 -9 57 -37 -3 -15 -9 -33 -15 -39 -7 -10 -2 -13
22 -13 17 0 31 -4 31 -10 0 -5 9 -19 20 -30 12 -12 18 -25 15 -30 -4 -6 1 -10
9 -10 17 0 22 -21 9 -34 -5 -4 -8 -13 -8 -19 -1 -7 -7 -10 -15 -8 -8 2 -36 6
-62 9 -27 2 -48 8 -48 12 0 8 -61 0 -75 -10 -5 -4 -36 -10 -69 -14 -32 -3 -84
-18 -115 -33 -31 -15 -60 -26 -64 -24 -5 1 -11 -7 -13 -17 -3 -9 -18 -24 -35
-31 -16 -7 -29 -19 -29 -27 0 -8 -12 -19 -26 -24 -23 -9 -25 -14 -21 -48 3
-20 10 -75 16 -122 6 -47 21 -112 34 -145 17 -46 22 -78 21 -135 -1 -45 -6
-76 -13 -78 -6 -2 -11 -8 -11 -14 0 -5 -12 -23 -27 -38 -16 -16 -33 -36 -40
-43 -6 -8 -28 -18 -48 -21 -31 -6 -41 -3 -77 26 -33 26 -40 28 -34 13 5 -11
11 -28 13 -38 4 -11 11 -16 21 -12 12 4 12 2 4 -8 -7 -8 -8 -17 -4 -21 4 -5
-10 1 -31 13 -38 21 -68 27 -66 14 3 -20 -2 -27 -10 -14 -7 11 -12 10 -28 -6
-11 -11 -25 -17 -31 -15 -8 2 -10 -3 -5 -14 4 -12 3 -15 -5 -10 -7 4 -12 14
-12 22 0 27 -17 14 -24 -18 -6 -32 0 -50 12 -33 10 14 51 13 60 -1 4 -6 25
-11 47 -11 22 0 49 -3 60 -6 19 -6 78 -15 120 -20 25 -3 38 -19 22 -29 -9 -6
-9 -10 1 -17 11 -7 11 -12 1 -28 -8 -14 -30 -23 -68 -29 l-56 -9 51 -18 c30
-10 63 -15 77 -12 29 8 67 -9 67 -30 0 -9 9 -6 25 11 32 32 45 24 45 -31 0
-52 -27 -77 -53 -50 -13 12 -15 12 -20 -5 -2 -10 -15 -20 -28 -22 -13 -1 -24
-7 -24 -13 0 -14 110 -18 135 -5 15 8 20 8 20 -2 0 -15 -41 -59 -89 -97 -34
-27 -32 -41 5 -41 13 0 24 -4 24 -9 0 -6 10 -8 21 -6 21 4 21 3 4 -15 -9 -10
-24 -16 -32 -13 -8 3 -26 0 -39 -8 -22 -11 -27 -11 -34 1 -8 12 -10 12 -10 1
0 -7 -6 -11 -14 -8 -8 3 -38 2 -65 -2 -43 -7 -51 -6 -52 8 -1 13 -2 13 -6 -1
-6 -23 -23 -23 -23 0 0 11 -7 6 -20 -15 -23 -38 -41 -44 -32 -11 4 19 3 20 -9
9 -8 -8 -14 -29 -15 -48 0 -18 2 -30 5 -26 3 5 17 17 30 28 21 18 24 18 18 3
-4 -10 -2 -18 4 -18 7 0 9 -13 7 -30 -6 -38 6 -47 25 -19 14 20 15 18 14 -27
0 -28 5 -50 11 -52 17 -5 15 -22 -3 -22 -8 0 -15 -8 -15 -17 0 -15 -2 -16 -10
-3 -9 13 -10 13 -10 0 0 -9 9 -23 20 -33 11 -9 20 -21 20 -27 0 -5 -9 -10 -20
-10 -11 0 -20 7 -20 16 0 8 -5 12 -11 9 -6 -4 -13 2 -16 14 -6 24 -23 28 -23
6 0 -19 -34 -19 -54 0 -13 14 -16 13 -25 -2 -9 -15 -10 -15 -11 -2 0 8 -6 24
-14 34 -12 17 -16 18 -31 5 -17 -14 -18 -13 -11 23 7 35 -4 51 -19 27 -3 -5
-16 -15 -28 -20 -21 -11 -21 -11 -3 4 16 13 17 19 8 28 -9 9 -12 9 -12 0 0 -7
-7 -12 -15 -12 -19 0 -19 10 1 39 16 22 16 23 -4 12 -26 -14 -35 -14 -27 -1 4
6 4 18 1 27 -6 14 -9 14 -29 -3 -22 -19 -22 -19 -6 1 25 31 34 49 21 41 -7 -4
-12 -3 -12 3 0 5 6 12 13 15 6 3 3 4 -9 1 -12 -3 -27 1 -34 10 -7 8 -10 15 -7
15 3 0 2 13 -3 29 -5 19 -4 33 3 41 9 10 9 11 -2 5 -10 -6 -12 -2 -6 14 4 15
2 21 -9 21 -10 0 -13 6 -10 15 4 8 1 15 -6 15 -7 0 -10 6 -7 14 7 17 -21 58
-34 51 -12 -8 -11 -2 3 32 6 15 12 39 13 53 1 14 5 37 9 52 7 24 12 27 50 24
23 -1 56 -11 72 -22 16 -12 35 -24 42 -28 21 -12 13 10 -13 38 -14 15 -25 32
-25 37 0 14 26 39 39 39 23 0 9 19 -18 25 -16 3 -35 12 -41 20 -8 10 -19 11
-43 4 -18 -5 -32 -9 -33 -9 -4 0 -16 47 -15 58 1 6 -3 20 -8 30 -9 14 -11 11
-12 -18 -1 -24 -3 -28 -6 -12 -2 12 -11 22 -19 22 -8 0 -14 8 -14 19 0 21 23
45 33 34 4 -3 7 0 7 9 0 18 53 93 108 152 23 25 42 47 42 50 0 3 -11 6 -23 6
-29 0 -100 -50 -124 -87 -15 -24 -48 -63 -98 -117 -27 -29 -53 -74 -60 -103
-7 -35 9 -99 32 -121 7 -7 13 -20 13 -28 0 -8 4 -14 8 -14 13 0 30 -42 37 -94
4 -25 11 -44 15 -41 4 3 11 -2 14 -11 3 -8 10 -12 16 -9 5 3 10 -1 10 -9 0 -9
-4 -16 -10 -16 -5 0 -10 -9 -10 -19 0 -11 -4 -22 -10 -26 -5 -3 -6 -15 -1 -27
5 -14 2 -32 -7 -51 -12 -25 -12 -31 -1 -38 12 -7 12 -9 0 -9 -8 0 -20 8 -27
17 -13 17 -14 17 -8 0 4 -9 1 -31 -6 -48 -16 -36 -25 -32 -10 5 6 18 6 25 0
21 -6 -3 -10 4 -10 16 0 22 0 22 -14 4 -8 -11 -12 -23 -10 -27 2 -4 -1 -10 -7
-14 -8 -4 -9 -3 -5 4 4 7 3 12 -3 12 -6 0 -8 7 -5 15 4 8 1 15 -5 15 -6 0 -11
4 -11 10 0 5 7 7 15 4 8 -4 15 -1 15 5 0 6 -5 11 -10 11 -6 0 -10 6 -8 14 5
22 -16 21 -27 -1 -12 -22 -35 -19 -35 5 0 8 -3 12 -6 9 -17 -16 -43 16 -50 60
-5 37 -9 43 -15 28 -6 -17 -8 -15 -15 14 -5 26 -9 30 -16 17 -5 -10 -5 -24 2
-38 11 -22 10 -22 -4 -4 -9 11 -16 28 -16 38 0 10 -4 18 -10 18 -5 0 -10 9
-10 20 0 11 -4 20 -8 20 -12 0 -32 46 -32 71 0 11 -7 22 -16 26 -12 4 -13 8
-3 13 9 6 8 17 -7 47 -17 34 -19 66 -22 297 -3 206 -6 264 -18 280 -15 22 -19
145 -5 181 7 17 8 16 15 -9 8 -31 59 -86 81 -86 14 0 12 21 -5 45 -27 38 -32
150 -9 196 10 20 16 38 14 41 -9 8 27 173 45 208 44 85 207 193 290 192 26 0
30 1 15 7 -16 7 -8 13 45 38 36 17 90 38 120 47 30 9 64 21 75 26 28 13 115
29 115 21 -1 -10 -86 -74 -127 -96 -20 -10 -58 -25 -83 -31 l-45 -13 49 0 c27
-1 47 2 43 5 -3 3 30 25 74 48 44 23 93 53 109 66 22 19 39 24 70 21 25 -1 40
2 40 9 0 6 4 8 10 5 5 -3 19 -1 31 6 17 9 23 8 30 -2 6 -11 14 -8 33 11 15 13
26 18 26 12 0 -7 7 -12 15 -12 8 0 15 4 15 9 0 23 159 26 207 4z m115 -705
c10 -1 14 -6 9 -11 -4 -4 -39 -7 -77 -5 -62 3 -67 4 -44 15 14 7 41 10 60 8
19 -3 43 -6 52 -7z m-75 -93 c11 -8 35 -16 53 -17 17 -1 34 -6 36 -10 3 -4 14
-8 25 -8 26 0 24 -17 -3 -23 -87 -21 -182 -18 -147 4 12 7 12 9 0 9 -8 0 -11
3 -8 6 4 4 -2 15 -14 25 -14 12 -16 18 -7 22 24 10 43 7 65 -8z m327 -71 c18
-7 21 -43 7 -90 -5 -18 -5 -37 0 -47 14 -25 14 -108 0 -152 -7 -22 -24 -60
-38 -84 -28 -48 -43 -133 -22 -129 14 3 21 -27 23 -99 1 -41 -4 -57 -20 -74
l-22 -21 -7 63 c-13 116 -56 181 -237 360 -74 72 -88 91 -88 118 0 17 -9 49
-20 71 -36 71 -20 87 65 64 28 -7 79 -13 115 -14 84 0 225 21 208 32 -16 10
12 11 36 2z m-479 -249 c0 -10 -6 -20 -12 -22 -8 -3 -13 5 -13 22 0 17 5 25
13 23 6 -3 12 -13 12 -23z m-1235 -62 c0 -5 -5 -15 -10 -23 -8 -12 -10 -11
-10 8 0 12 5 22 10 22 6 0 10 -3 10 -7z m492 -255 c-7 -7 -12 -8 -12 -2 0 6 3
14 7 17 3 4 9 5 12 2 2 -3 -1 -11 -7 -17z m759 -191 c-21 -21 -32 7 -13 33
l17 25 3 -24 c2 -13 -1 -28 -7 -34z m-731 -187 c-9 -6 -9 -9 1 -13 9 -3 10 -6
2 -6 -6 -1 -15 4 -18 9 -9 14 4 32 17 24 7 -4 6 -9 -2 -14z m24 -85 c-7 -16
-24 -21 -24 -6 0 8 7 13 27 20 1 1 0 -6 -3 -14z m-82 -68 c-7 -8 -8 -18 -4
-22 4 -5 1 -5 -6 -1 -9 5 -9 12 -1 27 6 12 13 18 16 15 3 -3 1 -12 -5 -19z
m588 -77 c0 9 6 5 13 -9 16 -33 37 -39 30 -10 -6 21 -5 22 17 6 20 -14 60 -69
60 -83 0 -4 -6 -1 -14 5 -12 10 -15 8 -18 -11 -4 -27 -22 -27 -26 -1 -3 15 -1
16 7 3 10 -13 11 -13 11 0 0 21 -20 48 -26 34 -3 -6 -11 -19 -18 -29 -12 -17
-15 -16 -41 23 -19 29 -25 47 -20 63 6 17 9 19 16 8 7 -12 9 -11 9 1z m-10
-83 c0 -5 -7 -7 -15 -3 -18 7 -18 4 -3 -29 13 -30 28 -34 21 -5 -3 11 -1 20 5
20 5 0 12 -11 14 -25 3 -13 1 -22 -3 -19 -5 3 -9 -2 -9 -10 0 -9 -4 -16 -10
-16 -5 0 -10 6 -10 14 0 21 -27 40 -34 24 -3 -7 -3 1 0 17 4 17 7 37 8 46 0
13 4 14 18 5 10 -6 18 -15 18 -19z m-264 -53 c3 -21 2 -25 -5 -14 -5 8 -7 18
-5 22 3 4 0 8 -6 8 -6 0 -8 5 -5 11 9 14 15 7 21 -27z m-319 -26 c-3 -8 -6 -5
-6 6 -1 11 2 17 5 13 3 -3 4 -12 1 -19z m20 -30 c-3 -8 -6 -5 -6 6 -1 11 2 17
5 13 3 -3 4 -12 1 -19z m361 -13 c-3 -3 -9 2 -12 12 -6 14 -5 15 5 6 7 -7 10
-15 7 -18z m-113 -234 c3 -5 1 -12 -5 -16 -5 -3 -10 -1 -10 5 0 6 -5 8 -12 4
-7 -4 -8 -3 -4 4 9 14 23 15 31 3z m2132 -217 c-3 -3 -12 -4 -19 -1 -8 3 -5 6
6 6 11 1 17 -2 13 -5z"/>
<path d="M1490 2650 c-19 -5 -38 -6 -42 -4 -12 8 -85 -40 -113 -73 -22 -28
-24 -34 -11 -39 8 -3 30 3 48 14 76 45 203 55 323 24 112 -29 162 -35 170 -23
3 6 16 9 28 6 19 -5 22 -2 21 25 -1 40 -6 44 -89 64 -75 17 -271 21 -335 6z"/>
<path d="M1718 2503 c-21 -5 -24 -19 -5 -26 23 -8 -3 -20 -55 -24 -29 -2 -72
-11 -96 -19 -23 -7 -52 -14 -63 -14 -23 0 -53 -25 -45 -38 3 -5 39 -4 80 1 88
11 200 1 220 -18 15 -15 86 -10 86 6 0 5 7 9 15 9 8 0 15 9 15 20 0 11 5 20
10 20 23 0 7 28 -32 58 -41 31 -79 39 -130 25z m-78 -83 c0 -5 -5 -10 -11 -10
-5 0 -7 5 -4 10 3 6 8 10 11 10 2 0 4 -4 4 -10z"/>
<path d="M1495 2463 c-48 -25 -80 -53 -63 -53 9 0 21 7 29 16 7 8 29 24 48 34
20 11 32 19 26 19 -5 0 -23 -7 -40 -16z"/>
<path d="M1770 2310 c-9 -6 -10 -10 -3 -10 6 0 15 5 18 10 8 12 4 12 -15 0z"/>
<path d="M1910 1930 c-11 -7 -4 -10 25 -10 29 0 36 3 25 10 -8 5 -19 10 -25
10 -5 0 -17 -5 -25 -10z"/>
<path d="M1779 1802 c-7 -11 -19 -18 -26 -15 -9 3 -11 0 -8 -10 5 -10 0 -14
-17 -13 -13 1 -31 -1 -40 -6 -12 -6 -20 -3 -27 9 -8 15 -10 11 -11 -21 0 -32
3 -37 18 -31 9 4 27 10 40 12 12 3 22 9 22 14 0 5 9 9 21 9 11 0 17 5 14 10
-3 6 -4 10 0 10 3 0 10 -10 15 -22 8 -21 9 -21 10 -3 0 17 2 17 10 5 6 -10 7
-2 3 25 -7 50 -9 52 -24 27z"/>
<path d="M1531 1444 c0 -11 3 -14 6 -6 3 7 2 16 -1 19 -3 4 -6 -2 -5 -13z"/>
<path d="M2118 1433 c7 -3 16 -2 19 1 4 3 -2 6 -13 5 -11 0 -14 -3 -6 -6z"/>
<path d="M1885 1190 c3 -5 -1 -11 -7 -14 -7 -3 -2 -3 12 0 36 9 43 19 15 20
-14 1 -23 -2 -20 -6z"/>
<path d="M1980 1131 c-6 -12 -7 -21 -1 -21 10 0 24 30 17 37 -2 3 -9 -5 -16
-16z"/>
<path d="M1790 1079 c0 -5 5 -7 10 -4 6 3 10 8 10 11 0 2 -4 4 -10 4 -5 0 -10
-5 -10 -11z"/>
<path d="M2160 1040 c0 -5 5 -10 10 -10 6 0 10 5 10 10 0 6 -4 10 -10 10 -5 0
-10 -4 -10 -10z"/>
<path d="M3228 3953 c-4 -104 4 -198 18 -213 12 -13 58 -15 287 -15 150 1 316
5 370 9 l97 8 0 129 0 129 -385 0 -385 0 -2 -47z"/>
<path d="M3950 3643 c-50 -17 -101 -45 -109 -62 -6 -10 -17 -53 -26 -96 -15
-70 -15 -83 -1 -137 16 -63 36 -87 72 -88 12 0 42 -3 68 -6 l46 -7 0 202 c0
216 1 212 -50 194z"/>
<path d="M0 2916 l0 -199 128 7 c70 3 197 9 282 12 85 4 161 11 168 17 10 8
11 46 6 171 -4 89 -9 164 -13 168 -3 4 -133 11 -289 15 l-282 8 0 -199z"/>
<path d="M3892 2690 c-34 -14 -42 -48 -41 -195 1 -161 3 -165 90 -165 l59 0 0
185 0 185 -42 -1 c-24 0 -53 -4 -66 -9z"/>
<path d="M385 2158 c-33 -5 -133 -7 -222 -3 l-163 6 0 -178 0 -179 298 2 c164
1 307 4 319 8 31 10 41 145 17 239 -28 115 -72 133 -249 105z"/>
<path d="M3916 1769 c-78 -13 -81 -18 -84 -189 -3 -139 -2 -150 17 -169 17
-17 34 -21 86 -21 l65 0 0 195 c0 219 9 200 -84 184z"/>
<path d="M3659 1300 c-292 -8 -351 -14 -370 -36 -13 -16 -26 -236 -16 -276 10
-36 38 -47 157 -58 106 -10 415 -24 490 -22 85 2 80 -12 80 207 l0 195 -37 -2
c-21 -1 -158 -4 -304 -8z"/>
<path d="M0 1049 l0 -181 53 6 c69 7 217 15 400 21 82 2 152 7 158 10 14 9 12
298 -3 313 -9 9 -92 12 -310 12 l-298 0 0 -181z"/>
<path d="M1436 997 c3 -10 9 -15 12 -12 3 3 0 11 -7 18 -10 9 -11 8 -5 -6z"/>
<path d="M1268 790 c-23 -17 -26 -29 -30 -102 -3 -46 -2 -94 3 -108 6 -22 7
-20 8 13 1 38 22 89 47 115 15 15 19 102 5 102 -4 0 -20 -9 -33 -20z"/>
<path d="M210 780 c-139 -7 -156 -15 -162 -72 -7 -71 6 -236 20 -250 10 -10
62 -12 230 -10 119 2 236 5 259 5 87 4 45 -30 -103 -83 -156 -55 -169 -57
-316 -52 l-138 5 0 -162 0 -161 405 0 405 0 0 43 c0 23 5 49 10 57 7 11 9 2 8
-31 0 -26 3 -52 6 -58 4 -6 38 -11 82 -11 l74 0 0 34 c0 21 -5 36 -14 38 -11
2 -11 14 4 71 10 37 21 98 25 135 4 37 12 76 18 87 6 11 14 59 17 108 5 74 9
91 29 110 l23 22 -8 -30 c-5 -16 -9 -74 -9 -128 1 -75 4 -101 15 -108 11 -8
12 -12 3 -16 -18 -7 -16 -33 2 -33 9 0 18 -7 22 -16 4 -12 7 -13 14 -3 4 8 11
10 16 6 9 -9 -11 -43 -24 -40 -4 1 -17 5 -28 9 -11 3 -1 -6 22 -22 23 -15 40
-30 39 -33 -8 -13 14 -51 29 -51 14 0 20 -17 16 -47 -1 -7 4 -10 12 -7 8 3 20
-2 27 -11 8 -10 9 -15 1 -15 -6 0 -11 5 -11 10 0 16 -17 11 -24 -7 -4 -9 -1
-20 6 -24 7 -4 9 -11 6 -14 -11 -11 -28 5 -28 25 0 10 -4 21 -8 24 -15 9 -52
-6 -52 -20 0 -17 -20 -19 -21 -1 -1 6 -3 26 -5 42 -2 17 -4 49 -3 71 0 33 -4
43 -20 47 -15 4 -22 17 -27 47 -12 77 -25 25 -30 -119 l-4 -143 62 4 c58 3 63
5 63 25 0 13 5 22 10 20 6 -1 9 -11 7 -23 -2 -20 2 -20 245 -22 245 -2 247 -1
206 16 -23 10 -48 23 -55 30 -6 6 -16 12 -20 12 -5 0 -20 10 -33 22 -13 13
-32 30 -42 38 -11 8 -27 26 -36 40 -10 14 -21 24 -25 22 -4 -1 -14 10 -22 26
-9 16 -30 46 -47 67 -18 21 -29 43 -26 49 4 7 1 7 -8 -1 -12 -9 -14 -5 -15 28
-1 26 -11 49 -28 70 -15 18 -26 43 -27 62 0 27 -2 29 -9 12 -6 -13 -7 -3 -3
28 6 45 5 47 -20 47 -18 0 -25 -4 -21 -14 3 -7 -2 -20 -10 -29 -17 -16 -22
-52 -7 -43 5 4 7 -4 4 -15 -6 -21 -7 -21 -20 -4 -7 11 -13 32 -13 48 0 31 38
127 50 127 5 0 14 15 20 34 8 26 8 40 -1 58 -7 13 -15 30 -19 38 -6 13 -65 15
-431 16 -233 0 -476 -2 -539 -6z m751 -392 c6 -51 5 -88 -2 -88 -5 0 -9 16 -9
35 0 22 -6 38 -15 41 -8 4 -15 10 -15 15 0 14 40 11 41 -3z m229 -23 c0 -8 -4
-15 -10 -15 -5 0 -10 7 -10 15 0 8 5 15 10 15 6 0 10 -7 10 -15z"/>
<path d="M1497 761 c-4 -17 -3 -21 5 -13 5 5 8 16 6 23 -3 8 -7 3 -11 -10z"/>
<path d="M1145 110 c-3 -5 1 -10 10 -10 9 0 13 5 10 10 -3 6 -8 10 -10 10 -2
0 -7 -4 -10 -10z"/>
</g>
</svg>
